<?xml version="1.0" encoding="UTF-8"?>
<svg id="_图层_1" xmlns="http://www.w3.org/2000/svg" version="1.1" viewBox="0 0 200 200">
  <!-- Generator: Adobe Illustrator 29.0.0, SVG Export Plug-In . SVG Version: 2.1.0 Build 186)  -->
  <defs>
    <style>
      .st0 {
        fill: #8cbb19;
      }
    </style>
  </defs>
  <path class="st0" d="M100,6.8C48.5,6.8,6.8,48.5,6.8,100s41.7,93.2,93.2,93.2,93.2-41.7,93.2-93.2S151.5,6.8,100,6.8ZM80.6,134.9c-2.6,0-5-1.5-6-3.9-.5-1.2-1.3-2.3-2.2-3.3-1-1-2.1-1.7-3.3-2.2-2.4-1-3.9-3.4-3.9-6,0-4.7,4.8-7.9,9.1-6,2.7,1.2,5.3,2.9,7.4,5,2.1,2.1,3.8,4.6,5,7.4,1.8,4.3-1.3,9.1-6,9.1h0s0,0,0,0ZM111.6,134.9c-3.3,0-6-2.4-6.5-5.6-1.2-8.6-5.2-16.6-11.5-22.9-6.3-6.3-14.3-10.3-23-11.5-3.2-.5-5.6-3.2-5.6-6.5s3.5-7,7.4-6.5c11.5,1.6,22.1,6.8,30.5,15.2,8.3,8.3,13.6,18.9,15.2,30.4.5,3.9-2.5,7.4-6.5,7.4ZM141.9,134.9c-3.4,0-6.2-2.6-6.5-6-1.4-16.6-8.5-32-20.4-43.9-11.9-11.9-27.4-19.1-44-20.5-3.4-.3-6-3.1-6-6.5h0c0-3.9,3.2-6.9,7-6.6,8.4.7,16.6,2.7,24.5,5.8,10.4,4.2,19.7,10.4,27.7,18.4,8,8,14.2,17.3,18.4,27.7,3.2,7.9,5.1,16,5.9,24.5.3,3.8-2.7,7-6.5,7h0Z"/>
</svg>